HIERARCHY
ROOT Joint1
{
	OFFSET 0.000000 0.000000 0.000000
	CHANNELS 6 Xposition Yposition Zposition Xrotation Yrotation Zrotation
	JOINT Joint2
	{
		OFFSET -0.000000 0.000000 1.456275
		CHANNELS 6 Xposition Yposition Zposition Xrotation Yrotation Zrotation
		JOINT Joint3
		{
			OFFSET -0.000000 0.000002 1.471446
			CHANNELS 6 Xposition Yposition Zposition Xrotation Yrotation Zrotation
			JOINT Joint4
			{
				OFFSET 0.625745 0.000000 0.917755
				CHANNELS 6 Xposition Yposition Zposition Xrotation Yrotation Zrotation
				JOINT Joint5
				{
					OFFSET -0.629534 0.000001 0.940221
					CHANNELS 6 Xposition Yposition Zposition Xrotation Yrotation Zrotation
					JOINT Joint6
					{
						OFFSET -0.000001 0.113772 1.960660
						CHANNELS 6 Xposition Yposition Zposition Xrotation Yrotation Zrotation
						JOINT Joint7
						{
							OFFSET -0.669733 -0.113771 0.388340
							CHANNELS 6 Xposition Yposition Zposition Xrotation Yrotation Zrotation
							End Site
							{
								OFFSET 0.005509 0.005509 0.438980
							}
						}
					}
				}
			}
		}
	}
}
MOTION
Frames: 9
Frame Time: 0.041667
0.000000 0.000000 0.000000 -0.000000 1.019410 -0.001669 -0.000000 0.000000 1.456275 0.000000 -44.967138 -0.000000 -0.000000 0.000002 1.471446 0.000000 -1.133462 -0.048195 0.625744 0.000000 0.917755 0.000004 135.018196 -0.000001 -0.629535 0.000001 0.940221 -0.000000 1.709737 0.003418 -0.000000 0.113772 1.960660 -88.312440 89.978877 -0.005910 -0.669733 -0.113771 0.388341 -0.704820 3.566198 134.944348 
0.000000 0.000000 0.000000 -0.000000 1.019410 0.027757 -0.000000 -0.000000 1.456275 -0.000000 -44.927174 -0.000000 -0.000000 0.000002 1.471446 0.000000 -1.133455 -0.093390 0.625744 0.000000 0.917755 0.000004 135.019029 -0.000001 -0.629534 0.000001 0.940221 -0.000000 1.709736 0.049451 -0.000001 0.113772 1.960660 -88.315411 89.983692 -0.007417 -0.669733 -0.113771 0.388340 -0.703748 3.566196 134.884010 
0.000000 0.000000 0.000000 -0.000000 1.019410 0.082107 -0.000000 0.000000 1.456275 -0.000000 -44.853347 0.000000 -0.000000 0.000002 1.471446 0.000000 -1.133457 -0.176865 0.625744 0.000000 0.917754 0.000004 135.020532 -0.000001 -0.629534 0.000001 0.940221 -0.000000 1.709736 0.134472 -0.000000 0.113772 1.960660 -88.328928 89.992585 -0.017137 -0.669733 -0.113771 0.388340 -0.701769 3.566190 134.772610 
0.000000 0.000000 0.000000 -0.000000 1.019410 0.165721 -0.000000 0.000000 1.456275 0.000000 -44.739771 0.000000 -0.000000 0.000002 1.471445 -0.000000 -1.133459 -0.305289 0.625745 0.000000 0.917755 0.000004 135.022840 -0.000001 -0.629533 0.000001 0.940221 -0.000000 1.709737 0.265273 -0.000001 0.113772 1.960660 -88.276049 90.006266 0.021954 -0.669733 -0.113771 0.388340 -0.698725 3.566173 134.601227 
0.000000 0.000000 0.000000 -0.000000 1.019410 0.282940 -0.000000 0.000000 1.456275 -0.000000 -44.580549 -0.000000 -0.000000 0.000002 1.471445 -0.000000 -1.133459 -0.485327 0.625745 0.000000 0.917755 0.000004 135.026078 -0.000001 -0.629534 0.000001 0.940221 -0.000000 1.709736 0.448645 -0.000000 0.113772 1.960660 -88.296622 90.025452 0.005056 -0.669733 -0.113771 0.388340 -0.694457 3.566135 134.360941 
0.000000 0.000000 0.000000 -0.000000 1.019410 0.438107 -0.000000 0.000000 1.456275 0.000000 -44.369787 0.000000 -0.000000 0.000002 1.471446 0.000000 -1.133457 -0.723649 0.625745 0.000000 0.917755 0.000004 135.030395 -0.000001 -0.629534 0.000001 0.940221 -0.000000 1.709736 0.691380 -0.000001 0.113772 1.960660 -88.300071 90.050840 0.002567 -0.669733 -0.113771 0.388339 -0.688808 3.566056 134.042872 
0.000000 0.000000 0.000000 -0.000000 1.019410 0.635563 -0.000000 0.000000 1.456275 0.000000 -44.101575 0.000000 -0.000000 0.000002 1.471446 0.000000 -1.133465 -1.026921 0.625744 0.000000 0.917755 0.000004 135.035845 -0.000001 -0.629534 0.000001 0.940221 -0.000000 1.709736 1.000269 -0.000001 0.113772 1.960660 -88.301669 90.083160 0.001222 -0.669733 -0.113771 0.388340 -0.681621 3.565911 133.638115 
0.000000 0.000000 0.000000 -0.000000 1.019410 0.879648 -0.000000 0.000000 1.456275 0.000000 -43.770031 -0.000000 -0.000000 0.000002 1.471445 0.000000 -1.133463 -1.401813 0.625745 0.000000 0.917755 0.000003 135.042607 -0.000001 -0.629534 0.000001 0.940221 -0.000000 1.709736 1.382102 -0.000001 0.113772 1.960660 -88.302318 90.123103 0.000743 -0.669733 -0.113771 0.388341 -0.672738 3.565662 133.137790 
0.000000 0.000000 0.000000 -0.000000 1.019410 1.174704 -0.000000 0.000000 1.456275 -0.000000 -43.369253 -0.000000 -0.000000 0.000002 1.471446 0.000000 -1.133462 -1.854990 0.625745 0.000000 0.917755 0.000004 135.050790 -0.000001 -0.629534 0.000001 0.940221 -0.000000 1.709736 1.843672 -0.000001 0.113772 1.960660 -88.302817 90.171392 0.000724 -0.669733 -0.113771 0.388340 -0.662002 3.565256 132.532977 
